<svg width="256" height="256" viewBox="0 0 256 256" fill="none" xmlns="http://www.w3.org/2000/svg">
<g clip-path="url(#clip0_1_2)">
<path d="M127.5 232C103.167 232 84.9167 223.333 72.75 206C60.5833 188.667 54.5 162.667 54.5 128C54.5 93.3333 60.5833 67.3333 72.75 50C84.9167 32.6667 103.167 24 127.5 24C151.833 24 170.083 32.6667 182.25 50C194.417 67.3333 200.5 93.3333 200.5 128C200.5 162.667 194.417 188.667 182.25 206C170.083 223.333 151.833 232 127.5 232ZM127.5 205.25C142.833 205.25 154.083 199 161.25 186.5C168.417 174 172 154.5 172 128C172 101.5 168.417 82 161.25 69.5C154.083 57 142.833 50.75 127.5 50.75C112.167 50.75 100.917 57 93.75 69.5C86.5833 82 83 101.5 83 128C83 154.5 86.5833 174 93.75 186.5C100.917 199 112.167 205.25 127.5 205.25ZM74.75 151.25L179.25 72.25V104.75L74.75 183.75V151.25Z" fill="#006FEE"/>
</g>
<defs>
<clipPath id="clip0_1_2">
<rect width="256" height="256" fill="white"/>
</clipPath>
</defs>
</svg>
